<svg id="Capa_16" data-name="Capa 16" xmlns="http://www.w3.org/2000/svg" viewBox="0 0 499.67 813.03"><defs><style>.cls-1{fill:#b17f49;}.cls-1,.cls-5,.cls-9{stroke:#422918;}.cls-1,.cls-2,.cls-3,.cls-4,.cls-5,.cls-6,.cls-7,.cls-8,.cls-9{stroke-linecap:round;stroke-width:3px;}.cls-1,.cls-11,.cls-12,.cls-13,.cls-14,.cls-15,.cls-2,.cls-3,.cls-4,.cls-5,.cls-6,.cls-7,.cls-8,.cls-9{stroke-miterlimit:10;}.cls-2{fill:#caba9f;}.cls-11,.cls-12,.cls-13,.cls-14,.cls-15,.cls-2,.cls-3,.cls-4,.cls-8{stroke:#1d1d1b;}.cls-3{fill:#891532;}.cls-4{fill:#ffe576;}.cls-5{fill:#fcdebe;}.cls-15,.cls-6,.cls-8{fill:none;}.cls-6{stroke:#683b11;}.cls-7{fill:#a81d25;stroke:#633;}.cls-9{fill:#683b11;}.cls-10,.cls-13,.cls-14{fill:#f5f5f5;}.cls-11{fill:#69b2e3;}.cls-11,.cls-12{stroke-width:5px;}.cls-12{fill:#1d1d1b;}.cls-14{stroke-width:2px;}.cls-15{stroke-width:10px;}</style></defs><g id="ropa"><g id="Capa_22" data-name="Capa 22"><path class="cls-1" d="M214.72,651.39c-26.61,25.07-9.23,27.3-26.25,36.83-17.83,10-14.33,25.6-29.59,39.56-17.88,16.37-34.45,43.12-28.16,47.76,28.52,21,49.58,40.6,59.17,26.74,3.21-4.64,16.66-48.36,19.25-48.12s-10.24,57.92,1.07,61.66c83,27.45,158.26,12.12,182.14,3.57C405.85,814.55,509.06,746,509,735.62c-.06-11-12.95-16.52-23.28-34.21-3.62-6.2,1.43-17.11-21.22-37.69-6.83-6.21-16.71-15.09-31.8-20.58C391.55,628.16,260.12,608.62,214.72,651.39Z" transform="translate(-47.28 -19.91)"/></g><g id="Capa_21" data-name="Capa 21"><path class="cls-2" d="M262.22,665.73c-8.47-1.94,9.08,31.51,10.19,81.17,1,45.52-5.54,74.86-.9,81,4.1,5.44,56.56,1.77,67.25.71,5.14-.5,65.35-7.13,61.78-16-4.64-11.62-8.72-36.74-25-87.8-8.08-25.42-3-59.85-13-57.27-10.74,2.77-30.36,7.39-42.82,6.74C298.75,673.19,272.29,668,262.22,665.73Z" transform="translate(-47.28 -19.91)"/></g></g><g id="bufanda"><path class="cls-3" d="M372.8,664.67c-5.72.42,13,20.46,19.19,46.6,7.75,32.85.19,64,4.72,68.11,6.69,6.06,39.92,12,48.66,3.56,6.52-6.32,13-37.09,5.08-85C444,659.08,427.88,631,425,635.25,411.11,655.86,376.75,664.38,372.8,664.67Z" transform="translate(-47.28 -19.91)"/><path class="cls-4" d="M386.52,692.5c-1-3.72,21.27-11.29,28.88-13.43s27.08-8.6,29.85-4.19c4.72,7.52,8.9,40.43,8.28,51-.33,5.8-9.86-5.35-28.63-2.85-19.28,2.56-30.13,18.44-30,7.72C395.2,711.62,390.09,705.09,386.52,692.5Z" transform="translate(-47.28 -19.91)"/><path class="cls-3" d="M218.07,603.07c-14.14-3.92-13.12,44.28-3.35,48.32,34.29,14.16,85.51,23.54,116,22.33,24-1,87.29-20.86,94.1-37.07,5-11.88,8.37-17,.48-27.8-.77-1.05-.11-27.26-3.11-26.33C410.76,586,357.06,623,327.42,623,300.23,623,250.12,612,218.07,603.07Z" transform="translate(-47.28 -19.91)"/><path class="cls-4" d="M251.62,612.15c-11.92,5.05-11.11,24.13-11,26.64.62,13.48,8.16,23.93,12,24.8,18.68,4.19,32.18,6.6,38.94,7.61,6.2.92-8-12.25-8-28.61,0-13-1-14.43,4.24-23.78C291.79,611.79,256.67,610,251.62,612.15Z" transform="translate(-47.28 -19.91)"/><path class="cls-4" d="M382.29,604.78c2.81,2.65,8.65,13.62,10.53,21.3,1.55,6.3,5.62,29,1.95,30.56-17.87,7.53-39.86,13.59-46.62,14.6-6.2.93,1.53,1,1.54-15.34,0-13-9.75-24.15-15-33.51C330.81,615.38,378.29,601,382.29,604.78Z" transform="translate(-47.28 -19.91)"/></g><g id="cabeza"><path class="cls-5" d="M116.64,165c-15.73-.09-24.75,190.81-25.09,206.54C90.08,440.61,119,548.4,134.29,564.18,161.57,592.29,274.37,623,327.42,623c34.26,0,109.88-48.54,143.7-72.74,27.89-20,29.65-74.9,36.49-170.59.9-12.6,4.87-223-6.61-228.26Z" transform="translate(-47.28 -19.91)"/><g id="Capa_17" data-name="Capa 17"><path class="cls-5" d="M507.58,380.09c2.24-12.72,14-39.1,19.09-37.87,4.62,1.13,5.91,22.08-1.82,39.11C519.55,393,505.75,406,506,402.11,506.67,393.45,506.94,383.74,507.58,380.09Z" transform="translate(-47.28 -19.91)"/><path class="cls-5" d="M91.63,394.82c-2.23-12.72-14-39.1-19.09-37.87-4.62,1.13-5.91,22.08,1.82,39.11,5.31,11.68,19.11,24.67,18.82,20.78C92.54,408.18,92.27,398.47,91.63,394.82Z" transform="translate(-47.28 -19.91)"/></g></g><g id="boca"><path class="cls-6" d="M291,457.43c-2.89,9.64-12.67,20.78-6.39,27.44,4.46,4.72,15.81,5.53,25.37,1.43,5.2-2.23,3.81-9.45,1.81-11.77-1.39-1.6-2.4-.26-6.32-.35" transform="translate(-47.28 -19.91)"/></g><g id="cicatriz"><polygon class="cls-7" points="185.59 160.9 202.67 195.35 189.36 208.42 191.26 233.37 169.4 209.61 181.99 191.07 174.87 182.28 185.59 160.9"/></g><g id="cejas"><path class="cls-8" d="M225.29,285.27c-4.52-2.66-32.58-16.14-64.63-6.84a83.84,83.84,0,0,0-44,31.37" transform="translate(-47.28 -19.91)"/><path class="cls-8" d="M347.61,277.53c4.52-2.66,31.35-22.13,64.52-18.46,33.86,3.74,48.18,21.12,52,26.73" transform="translate(-47.28 -19.91)"/></g><g id="pelo"><path class="cls-9" d="M288.62,48.06C273.55,46.27,211,28.48,116.82,98.67c-39.21,29.23-60.3,91.6-63.21,108.12-5.22,29.71-7.26,103-.71,111.69,1.66,2.2,8.05-26.62,11.88-21.63,4.75,6.18-10.22,69.95,51.86,114.61,5.23,3.76-35.56-52.23-10.51-128.15.77-2.34-7.67,37.37,19.25,47.05,8.68,3.12-14.26-28.28,15.68-79.37,3.19-5.44.47,21.62,19.72,23.52,13.64,1.35-31.13-20.61,23.76-87.44,3.52-4.28-14.71,61.16-7.84,59,41.59-13.13,52.84-69.09,59.71-68.61,18,1.24,40.09,23.7,42.23,33.86,5.66,26.85-13.18,50.43-4.27,79.84,1,3.41,10.7-22.38,16.63-19.07s-2.42,34.69,10.46,42.59c5.16,3.18,28-78.59,20.67-115.48-2.9-14.65,35.64,35.29,45.09,38.49,6.38,2.17-3.25-38.73-1.61-44.19a.33.33,0,0,1,.16-.22c6.38-2.62,11.78,32.83,54.73,33.54,2.75.05-17.83-13-23.16-32.26" transform="translate(-47.28 -19.91)"/><path class="cls-9" d="M415.57,226.56c3.89,19.57-3.43,27.85-.56,33.23,3.89,7.3,41.85-19.08,59-47.06,4.77-7.8-26.09,38.86-1.25,81.45,20,34.22,8.84,65.19,13.9,62.55,20.86-10.87,23.21-33,23.88-23.73.3,3.94-2.18,20.85-2.89,46.69-.11,4.09,30.76-36.51,36.33-135.12C546,208,550.49,183.5,520.39,131.09c-32.6-56.8-87.07-87.6-113.67-97.76-21.15-8.08-54.34-13.69-85.54-11.41-33.39,2.45-47.46,10-58.69,22.84" transform="translate(-47.28 -19.91)"/></g><g id="ojo_der" data-name="ojo der"><path id="fondo" class="cls-10" d="M384.05,298.64c33.19,0,74.76,34.06,74.61,49.86-.16,17.77-49.66,50.12-74.61,49.86-32.95-.35-70.47-9-74.77-35.06C304,331.11,358.15,298.64,384.05,298.64Z" transform="translate(-47.28 -19.91)"/><g id="pupila"><ellipse id="exterior" class="cls-11" cx="336.51" cy="328.44" rx="49.54" ry="50.89"/><ellipse id="interio" class="cls-12" cx="336.51" cy="323.27" rx="42.09" ry="43.23"/></g><g id="brillos"><ellipse class="cls-13" cx="314.4" cy="304.9" rx="6.78" ry="6.96"/><ellipse class="cls-13" cx="377.86" cy="341.04" rx="7.68" ry="7.89"/><g id="Capa_7" data-name="Capa 7"><path class="cls-14" d="M400.19,365.38c-2,.89-4.7,28.27-2,29.4,3,1.23,19.87-8.81,20-11.14C418.3,380.66,402.87,364.16,400.19,365.38Z" transform="translate(-47.28 -19.91)"/></g></g><g id="exterior-2" data-name="exterior"><g id="pestanias"><path class="cls-12" d="M446.7,394c-.52,4.92-9.47-6.57-12.89-4.69-4.46,2.45.11,18.7-3.8,18.53-7-.3-4.43-11.32-8.61-11.52s-6,18.67-12.3,14.73c-17.91-11.17-27.92,1.43-81.62-24.62-1.9-.92,48.83,15.95,67.14,11.6,28.11-6.66,61.65-48.41,58.68-41.28C444.43,378,447.83,383.35,446.7,394Z" transform="translate(-47.28 -19.91)"/><path class="cls-12" d="M458.48,346.06c1.49,6.49,3.12-30.92-4-39.82a15.81,15.81,0,0,0-5.42-4.8c-4.3-2.19-8.78-1.4-13.61-2.27-5.47-1-5.17-6.24-10.34-18-1.2-2.72-4.07,9.71-8.56,8.55-6.23-1.6.54-13,.34-16.27-.26-4.24-12.28,13.24-20.65,12-3-.45-.38-9.86-2.5-8.56-29,17.82-69,34.93-79.13,58.46-3.13,7.29,35.65-41.77,75-37.5S454.76,329.87,458.48,346.06Z" transform="translate(-47.28 -19.91)"/></g></g></g><g id="ojo_izq" data-name="ojo izq"><g id="fondo-2" data-name="fondo"><path class="cls-10" d="M192.62,308.35c-33.18,0-74.76,34.06-74.61,49.85.17,17.78,49.66,50.13,74.61,49.86,32.95-.35,70.48-9,74.77-35.05C272.7,340.81,218.52,308.35,192.62,308.35Z" transform="translate(-47.28 -19.91)"/></g><ellipse id="exterior-3" data-name="exterior" class="cls-11" cx="145.34" cy="339.32" rx="49.54" ry="50.89"/><ellipse id="interio-2" data-name="interio" class="cls-12" cx="145.34" cy="334.15" rx="42.09" ry="43.23"/><ellipse class="cls-13" cx="121.83" cy="315.78" rx="6.78" ry="6.96"/><ellipse class="cls-13" cx="184.52" cy="351.24" rx="7.68" ry="7.89"/><path class="cls-14" d="M207.29,376.26c-2,.89-4.7,28.27-2,29.4,3,1.23,19.87-8.81,20-11.14C225.4,391.54,210,375,207.29,376.26Z" transform="translate(-47.28 -19.91)"/><g id="pestanias-2" data-name="pestanias"><path class="cls-12" d="M129.71,404.86c.52,4.92,9.47-6.57,12.89-4.69,4.47,2.45-.11,18.7,3.8,18.53,7-.29,4.43-11.32,8.62-11.52s6,18.67,12.29,14.73c17.92-11.17,27.93,1.43,81.63-24.62,1.89-.92-48.83,15.95-67.14,11.61-28.12-6.67-61.65-48.41-58.68-41.29C132,388.9,128.58,394.23,129.71,404.86Z" transform="translate(-47.28 -19.91)"/><path class="cls-12" d="M117.93,357c-1.48,6.48-3.11-30.93,4-39.83a15.69,15.69,0,0,1,5.42-4.79c4.3-2.2,8.78-1.41,13.61-2.28,5.47-1,5.17-6.24,10.33-18,1.2-2.72,4.08,9.71,8.56,8.55,6.24-1.6-.54-13-.33-16.27.26-4.24,12.27,13.24,20.65,12,3-.45.37-9.86,2.49-8.56,29,17.82,69,34.93,79.13,58.46,3.13,7.29-35.64-41.77-75-37.5S121.65,340.75,117.93,357Z" transform="translate(-47.28 -19.91)"/></g></g><g id="anteojos"><circle class="cls-15" cx="348.72" cy="328.59" r="105"/><circle class="cls-15" cx="138.72" cy="343.36" r="105"/></g></svg>